<svg xmlns="http://www.w3.org/2000/svg" viewBox="0 0 24 24" width="24" height="24" fill="currentColor">
  <path d="M10.5 6.6 A1.5 1.5 0 1 1 13.5 6.6 A1.5 1.5 0 1 1 10.5 6.6 Z
    M12 7.9 L14.2 19.4 L9.8 19.4 Z
    M14.97 5.32 A4 4 0 0 1 14.97 10.68 L14.23 10.01 A3 3 0 0 0 14.23 5.99 Z
    M16.68 3.78 A6.3 6.3 0 0 1 16.68 12.22 L15.86 11.48 A5.2 5.2 0 0 0 15.86 4.52 Z
    M9.03 10.68 A4 4 0 0 1 9.03 5.32 L9.77 5.99 A3 3 0 0 0 9.77 10.01 Z
    M7.32 12.22 A6.3 6.3 0 0 1 7.32 3.78 L8.14 4.52 A5.2 5.2 0 0 0 8.14 11.48 Z"/>
</svg>
